<svg width="80" height="29" viewBox="0 0 80 29" fill="none" xmlns="http://www.w3.org/2000/svg">
<path d="M35.0458 9.89818C34.6386 9.498 34.0414 9.23121 33.417 9.23121C32.3583 9.23121 31.4354 9.95154 31.1639 10.9387L30.9739 11.6857C29.5351 9.89818 27.3634 8.72431 24.4316 8.72431C19.3824 8.72431 15.3648 12.486 15.3648 18.8089C15.3648 21.2101 15.962 23.2643 16.9664 24.8384C14.8761 26.0389 9.09399 26.7059 9.0397 19.5293C9.0397 19.4759 9.0397 19.4492 9.0397 19.3959V13.073H11.3743C11.9172 13.073 12.4058 12.8595 12.7587 12.5127C13.1116 12.1659 13.3288 11.6857 13.3288 11.1521C13.3288 10.0849 12.4601 9.23121 11.3743 9.23121H9.0397V6.18981C9.0397 5.49616 8.76824 4.88255 8.30675 4.45568C7.84527 4.00214 7.2209 3.73535 6.54225 3.73535C5.15779 3.73535 4.04479 4.82919 4.04479 6.21649V9.25789H1.95453C1.4116 9.25789 0.922972 9.47132 0.570071 9.81815C0.21717 10.1383 0 10.6185 0 11.1521C0 12.2193 0.86868 13.073 1.95453 13.073H3.9905V19.3959C3.9905 19.4492 3.9905 19.4759 3.9905 19.5293C4.07194 29.5072 14.2789 30.5744 18.7038 26.866C20.2511 28.1466 22.2328 28.8402 24.4045 28.8402C27.3091 28.8402 29.4537 27.7197 30.9196 25.9589L31.1096 26.6792C31.2453 27.1861 31.5439 27.613 31.9511 27.9331C32.3583 28.2266 32.847 28.4134 33.3899 28.4134C34.6929 28.4134 35.7245 27.3729 35.7245 26.119V11.5256C35.7245 10.8853 35.4801 10.325 35.0458 9.89818ZM25.7346 24.6516C22.64 24.6516 20.4954 22.2239 20.4954 18.8089C20.4954 15.3674 22.6128 12.9129 25.7346 12.9129C28.965 12.9129 31.1367 15.3674 31.1367 18.8089C31.1367 22.2505 28.965 24.6516 25.7346 24.6516Z" fill="white"/>
<path d="M43.5695 0C44.954 0 46.0941 1.12052 46.0941 2.48114V25.9319C46.0941 27.2925 44.954 28.4131 43.5695 28.4131C42.1851 28.4131 41.0449 27.2925 41.0449 25.9319V2.48114C41.0449 1.12052 42.1851 0 43.5695 0Z" fill="white"/>
<path d="M50.4106 25.9585C50.4106 24.3577 51.768 23.0771 53.4239 23.0771C55.0798 23.0771 56.4371 24.3844 56.4371 25.9585C56.4371 27.5592 55.0798 28.8398 53.4239 28.8398C51.768 28.8398 50.4106 27.5592 50.4106 25.9585Z" fill="#FABF13"/>
<path d="M57.9028 14.9668C57.9028 7.20318 63.685 1.01367 72.3989 1.01367C74.6521 1.01367 76.688 1.41386 78.534 2.18754C79.9456 2.77448 80.4342 4.50861 79.5927 5.76252C78.8869 6.77632 77.5567 7.12315 76.4437 6.58957C75.2493 6.02931 73.9191 5.70916 72.4532 5.70916C66.8882 5.70916 63.4407 10.0045 63.4407 15.0201C63.4407 19.9557 66.8882 24.3311 72.4532 24.3311C73.892 24.3311 75.2493 24.0109 76.4166 23.424C77.5296 22.8637 78.8869 23.2105 79.5927 24.2243C80.4342 25.4782 79.9456 27.1857 78.5611 27.7993C76.7423 28.573 74.6792 28.9999 72.4261 28.9999C63.685 28.9999 57.9028 22.7837 57.9028 14.9668Z" fill="#57B3AA"/>
</svg>
