<svg width="130" height="28" viewBox="0 0 130 28" fill="none" xmlns="http://www.w3.org/2000/svg">
<path d="M96.8643 8.89648C91.9225 8.89648 88.2568 13.0694 88.2568 18.2574V18.342C88.2568 23.5017 91.8953 27.6183 96.81 27.6183C101.752 27.6183 105.418 23.4172 105.418 18.2574V18.1728C105.39 13.013 101.752 8.89648 96.8643 8.89648ZM100.937 18.3138C100.937 20.9642 99.4167 23.2198 96.8372 23.2198C94.3391 23.2198 92.6556 20.9078 92.6556 18.2574V18.1728C92.6556 15.5224 94.1762 13.2668 96.7829 13.2668C99.281 13.2668 100.964 15.5788 100.964 18.2292L100.937 18.3138Z" fill="#E1B945"/>
<path d="M115.356 8.89648C110.414 8.89648 106.748 13.0694 106.748 18.2574V18.342C106.748 23.5017 110.387 27.6183 115.301 27.6183C120.243 27.6183 123.909 23.4172 123.909 18.2574V18.1728C123.909 13.013 120.243 8.89648 115.356 8.89648ZM119.456 18.3138C119.456 20.9642 117.935 23.2198 115.356 23.2198C112.857 23.2198 111.174 20.9078 111.174 18.2574V18.1728C111.174 15.5224 112.695 13.2668 115.301 13.2668C117.799 13.2668 119.483 15.5788 119.483 18.2292L119.456 18.3138Z" fill="#E1B945"/>
<path d="M127.601 3.7373C126.95 3.7373 126.379 4.01926 125.945 4.44219C125.538 4.86512 125.266 5.48543 125.266 6.16212V27.196H129.964V6.16212C129.964 4.80873 128.905 3.7373 127.601 3.7373Z" fill="#57B3AA"/>
<path d="M41.7437 8.8972C40.4403 8.8972 39.4085 9.99683 39.4085 11.322V17.3277C39.4085 19.6397 38.8111 21.8107 36.476 22.2901C34.711 22.6566 33.6249 21.8671 33.6249 19.5833V9.94044C33.6249 8.58705 32.5659 7.51562 31.2897 7.51562C29.9864 7.51562 28.9546 8.61525 28.9546 9.94044V21.1058C28.9546 25.0532 31.0182 27.5908 34.6024 27.5908C36.6932 27.5908 38.0508 26.4912 39.0827 25.2224C39.2184 25.0814 39.49 25.1378 39.49 25.3634V27.5344H44.1603V11.322C44.0788 9.96863 43.0198 8.8972 41.7437 8.8972Z" fill="#57B3AA"/>
<path d="M54.0439 9.9121C53.6637 9.9121 52.9577 10.0813 52.9577 10.0813C52.2246 10.2504 51.1928 10.5888 51.0299 10.617C50.8398 9.46097 49.8623 8.58691 48.7219 8.58691C47.4185 8.58691 46.3867 9.68654 46.3867 11.0117V27.5343H51.1113L51.1385 18.7937C51.2471 18.117 51.5458 17.1865 52.4147 16.6508C52.5504 16.5662 52.7134 16.5098 52.8763 16.4253C54.0439 16.0023 55.673 16.6226 56.7863 16.0023C57.5466 15.2692 57.5466 14.1696 57.5466 13.4929C57.5466 11.5474 55.9717 9.9121 54.0439 9.9121Z" fill="#57B3AA"/>
<path d="M85.4597 22.6C84.7809 22.6846 83.559 22.7692 82.853 22.882C80.7079 23.1639 78.3728 21.8951 77.9112 19.0474C77.5039 16.538 78.6714 13.6621 81.3053 13.2391C83.2331 12.9008 85.6769 14.9027 87.0617 12.5342C87.7405 11.3782 87.3876 9.82747 86.2471 9.12258C85.5412 8.67145 84.8352 8.72784 84.0477 8.72784C81.957 8.72784 79.8933 8.69965 77.9383 9.68649C72.6435 12.3087 71.2858 19.8651 75.1144 24.4609C77.178 26.9139 80.0562 27.6188 83.0702 27.6188C84.9709 27.6188 88.1478 28.0417 88.1478 25.1094C88.0935 23.6151 86.8445 22.4308 85.4597 22.6Z" fill="#57B3AA"/>
<path d="M70.6889 18.1445C69.3584 16.9885 68.0822 16.34 66.453 15.7761C64.8238 15.2404 63.3576 15.2404 63.2761 14.1407C63.1675 13.0411 64.5794 12.872 65.5841 13.2949C66.5888 13.7178 67.6477 14.0562 68.2451 14.3099C68.8425 14.5637 70.5531 14.8174 71.3677 13.5486C72.1823 12.2798 71.5849 10.7573 70.2001 10.1652C68.8153 9.57308 66.7245 8.8118 65.1497 8.86819C65.1497 8.86819 61.3754 8.69902 59.8548 11.2648C58.3614 13.8306 59.0674 16.7629 61.0496 18.0881C63.0317 19.4133 64.9324 19.8644 65.5841 20.1182C66.2629 20.372 68.0279 21.105 67.8649 22.1483C67.702 23.0223 67.2404 23.8682 65.6384 23.5017C64.0092 23.1351 62.5701 22.825 61.4568 22.2892C60.3164 21.7535 59.1488 21.5844 58.28 22.684C57.4111 23.7836 57.9813 25.0524 58.7959 25.7573C59.6104 26.4622 61.7012 27.59 64.7152 27.6464C67.7292 27.7028 71.0147 27.2235 71.9107 24.1783C72.8068 21.1332 72.0465 19.2723 70.6889 18.1445Z" fill="#57B3AA"/>
<path d="M16.0841 4.27246C13.7218 4.27246 11.6853 4.92096 10.0561 6.02058C9.86604 6.16156 9.67597 6.27434 9.48589 6.44351L10.4362 7.28938C10.4362 7.28938 9.97465 8.92472 9.0786 10.2499C8.18255 11.6033 6.58052 12.0262 6.58052 12.0262L5.9017 11.4059C3.10494 18.5394 6.3633 28.3232 16.0569 27.5901C29.7692 26.5469 31.5884 4.27246 16.0841 4.27246ZM16.0298 21.8946C8.34547 22.4867 8.58985 9.99615 16.0569 9.99615C23.9584 9.99615 23.0352 21.3589 16.0298 21.8946Z" fill="#57B3AA"/>
<path d="M9.10572 10.2503C10.0018 8.89688 10.4634 7.28973 10.4634 7.28973L9.51302 6.44387L7.9653 5.09048C8.26398 3.87808 8.39974 2.63748 8.39974 1.34048V1.19951C8.39974 0.748377 8.0196 0.381836 7.58516 0.381836C7.53085 0.381836 7.44939 0.381836 7.44939 0.410031C5.46722 0.6074 3.70228 1.19951 2.10025 2.15815L1.80157 2.4683C0.579681 4.58296 0.0366211 6.95139 0.0366211 9.57357C0.0366211 9.71454 0.0366211 9.82733 0.0366211 9.9683C0.0366211 9.9683 0.0366211 9.9683 0.0366211 9.9965C0.0637741 10.4476 0.416763 10.8142 0.851211 10.8142C0.878364 10.8142 0.905517 10.8142 0.93267 10.8142C0.986976 10.8142 1.01413 10.786 1.06844 10.786C2.1274 10.6168 3.15922 10.2785 4.16388 9.82733L5.92882 11.3781L6.6348 11.9984C6.60765 12.0266 8.20967 11.6036 9.10572 10.2503Z" fill="#E1B945"/>
</svg>
