<svg width="46" height="50" viewBox="0 0 46 50" fill="none" xmlns="http://www.w3.org/2000/svg">
<path d="M21.4561 35.3537C21.623 36.1973 21.9013 37.8027 21.8734 38.5918C22.0682 38.5646 22.263 38.5646 22.4578 38.5646C22.5413 38.5646 22.6247 38.5646 22.6804 38.5646C22.8752 38.5646 23.0143 38.5374 23.2091 38.5374C23.8213 38.5374 24.4056 38.5646 24.99 38.6462C24.99 38.6462 24.99 38.6462 25.0178 38.6462C25.0178 38.4558 24.99 38.2653 25.0178 38.0748C25.0178 37.8571 25.0456 37.6394 25.0734 37.3945C25.1013 37.2313 25.1291 37.1224 25.1291 36.9592C25.1291 36.8775 25.1569 36.7959 25.1569 36.7143C25.1847 36.5782 25.2126 36.4422 25.2404 36.3061C25.2682 36.2245 25.2682 36.1428 25.2961 36.0612C25.3239 35.9251 25.3517 35.8163 25.4074 35.7075C25.4352 35.5986 25.463 35.4898 25.4908 35.4081C24.1274 35.2449 22.7917 35.2177 21.4561 35.3537Z" fill="#EBC041"/>
<path d="M44.0785 33.6934C43.8281 33.2853 43.5776 32.9587 43.3272 32.6322C42.6594 31.7887 41.8524 31.054 40.9341 30.4825C39.2924 29.4485 37.4002 28.9315 35.2854 28.9315C30.1098 28.9315 27.1881 31.3805 25.8802 34.2921C24.0159 34.0472 22.0959 34.0472 20.2315 34.3193C19.4246 32.4961 17.9776 30.8363 15.7237 29.8567H15.6959C15.2507 29.6662 14.8054 29.5029 14.3046 29.3669C14.2768 29.3669 14.2489 29.3669 14.2211 29.3397C13.9707 29.2852 13.7759 29.2308 13.5254 29.1764C13.4976 29.1764 13.4698 29.1764 13.442 29.1492C13.1915 29.0948 12.9133 29.0404 12.635 29.0131C12.6072 29.0131 12.6072 29.0131 12.5794 29.0131C12.3289 28.9859 12.0785 28.9587 11.8002 28.9315C11.7446 28.9315 11.6889 28.9315 11.6333 28.9315C11.355 28.9043 11.0489 28.9043 10.7428 28.9043C8.60023 28.9043 6.70805 29.4213 5.09414 30.4553C4.17588 31.0267 3.36892 31.7342 2.7011 32.5778C2.45066 32.8771 2.20023 33.258 1.94979 33.6662C0.141096 36.605 -0.192817 40.4145 0.948052 43.571C1.19849 44.224 1.47675 44.8227 1.83849 45.4213C2.64544 46.7274 3.73066 47.7342 5.06631 48.4417C6.42979 49.1764 8.04371 49.5846 9.8524 49.5846C10.1307 49.5846 10.4367 49.5846 10.7428 49.5574C10.7707 49.5574 10.7707 49.5574 10.7985 49.5574C10.9654 49.5574 11.1046 49.5302 11.2715 49.5029C11.2994 49.5029 11.3272 49.5029 11.355 49.5029C11.4941 49.4757 11.6054 49.4757 11.7168 49.4485C11.7724 49.4485 11.8281 49.4213 11.8837 49.4213C11.995 49.3941 12.1063 49.3941 12.1898 49.3669C12.2454 49.3669 12.3289 49.3397 12.3846 49.3125C12.4681 49.2853 12.5794 49.258 12.635 49.258C12.7185 49.2308 12.802 49.2308 12.8576 49.2036C12.9411 49.1764 13.0246 49.1492 13.1081 49.1492C13.1915 49.122 13.275 49.0948 13.3585 49.0676C13.4141 49.0404 13.4976 49.0404 13.5533 49.0132C13.6646 48.9859 13.7481 48.9315 13.8315 48.9043C13.8872 48.8771 13.915 48.8771 13.9707 48.8499C14.082 48.7955 14.2211 48.7683 14.3046 48.7138C14.3046 48.7138 14.3324 48.7138 14.3324 48.6866C17.7272 47.2717 20.5933 44.1968 21.0385 39.7887C22.3741 39.571 23.7376 39.571 25.0733 39.7342C25.6854 45.6662 30.555 49.2036 35.3133 49.5302C35.6194 49.5574 35.9533 49.5574 36.2315 49.5574C39.7098 49.5574 42.5202 48.1152 44.1898 45.3941C46.3324 42.0744 46.2768 37.2308 44.0785 33.6934ZM17.5881 44.9859C17.4768 45.122 17.3933 45.2036 17.3376 45.2853C17.3376 45.2853 17.3376 45.2853 17.3098 45.3125C16.9759 45.6662 16.6141 46.02 16.2246 46.3465L16.1968 46.3737C16.1689 46.4009 16.1411 46.4281 16.1133 46.4281C16.0298 46.4825 15.9741 46.537 15.8907 46.5914C15.8907 46.5914 15.8628 46.5914 15.8628 46.6186C15.835 46.6458 15.7794 46.673 15.7515 46.7002C15.7515 46.7002 15.7515 46.7002 15.7237 46.7002C15.6402 46.7546 15.5846 46.8091 15.5011 46.8363C15.5011 46.8363 15.4733 46.8363 15.4733 46.8635C15.4176 46.8907 15.3898 46.9179 15.3341 46.9451C15.3341 46.9451 15.3063 46.9451 15.3063 46.9723C15.2228 47.0268 15.1672 47.054 15.0837 47.1084C15.0837 47.1084 15.0559 47.1084 15.0559 47.1356C15.0002 47.1628 14.9724 47.19 14.9168 47.2172C14.8889 47.2172 14.8889 47.2444 14.8611 47.2444C14.8054 47.2717 14.722 47.3261 14.6663 47.3533H14.6385C14.6107 47.3805 14.555 47.3805 14.5272 47.4077C14.4715 47.4349 14.4437 47.4621 14.3881 47.4621C14.3324 47.4893 14.2768 47.5166 14.2211 47.5438C14.082 47.6254 13.9428 47.6798 13.8037 47.7342C13.7481 47.7615 13.6924 47.7615 13.6646 47.7887C13.6089 47.8159 13.5254 47.8431 13.4698 47.8703C13.442 47.8703 13.4141 47.8975 13.3585 47.8975H13.3307C13.275 47.9247 13.1915 47.9519 13.1359 47.9519C13.1081 47.9519 13.0524 47.9791 13.0246 47.9791C12.9689 48.0063 12.9411 48.0063 12.8854 48.0336C12.8576 48.0336 12.8576 48.0336 12.8298 48.0608C12.7741 48.088 12.6907 48.088 12.635 48.1152C12.6072 48.1152 12.5794 48.1424 12.5515 48.1424C12.4959 48.1424 12.4402 48.1696 12.4124 48.1696C12.3846 48.1696 12.3568 48.1696 12.3289 48.1968C12.2454 48.224 12.1898 48.224 12.1063 48.2512C12.0785 48.2512 12.0507 48.2512 12.0228 48.2785C11.9672 48.2785 11.9394 48.3057 11.8837 48.3057C11.8559 48.3057 11.8002 48.3329 11.7724 48.3329C11.7168 48.3329 11.6333 48.3601 11.5498 48.3601C11.522 48.3601 11.4941 48.3601 11.4941 48.3601C11.4663 48.3601 11.4385 48.3601 11.4107 48.3601C11.3272 48.3601 11.2437 48.3873 11.1881 48.3873C11.1324 48.3873 11.0767 48.4145 10.9933 48.4145C10.7985 48.4417 10.6315 48.4689 10.4367 48.4689C6.98631 48.7138 4.20371 47.4621 2.61762 44.8771C2.50631 44.6866 2.39501 44.5234 2.31153 44.3329C2.2837 44.3057 2.2837 44.2785 2.25588 44.2512C2.1724 44.088 2.11675 43.9791 2.03327 43.8159C1.97762 43.707 1.94979 43.6254 1.89414 43.5438C0.725444 40.6594 1.0037 37.0676 2.67327 34.3193C2.92371 33.9655 3.11849 33.639 3.36892 33.3669C3.95327 32.6322 4.64892 32.0063 5.48371 31.4893C6.90284 30.5914 8.60023 30.1288 10.5202 30.1288C14.7776 30.1288 17.3098 31.9519 18.5898 34.2648C18.6454 34.3737 18.7289 34.5097 18.7846 34.6186C18.9237 34.8907 19.035 35.1628 19.1185 35.4349C19.1463 35.4893 19.1463 35.5165 19.1741 35.571C19.1741 35.5982 19.1741 35.5982 19.202 35.6254C19.2298 35.707 19.2576 35.7614 19.2854 35.8431C19.3133 35.8975 19.3133 35.9791 19.3411 36.0336C19.5637 36.7682 19.6472 37.4757 19.675 38.1832C20.0089 40.4689 19.2298 43.0268 17.5881 44.9859ZM25.3515 35.707C25.3237 35.8431 25.2681 35.9519 25.2402 36.0608C25.2124 36.1424 25.2124 36.224 25.1846 36.3057C25.1568 36.4417 25.1289 36.5778 25.1011 36.7138C25.1011 36.7955 25.0733 36.8771 25.0733 36.9587C25.0454 37.122 25.0176 37.2308 25.0176 37.3941C24.9898 37.639 24.9898 37.8295 24.962 38.0744C24.962 38.2921 24.962 38.4553 24.962 38.6458C24.962 38.6458 24.962 38.6458 24.9341 38.6458C24.3498 38.5642 23.7376 38.537 23.1533 38.537C22.9585 38.537 22.8194 38.537 22.6246 38.5642C22.5411 38.5642 22.4576 38.5642 22.402 38.5642C22.2072 38.5642 22.0124 38.5914 21.8176 38.5914C21.8454 37.8023 21.5672 36.224 21.4002 35.3533C22.7081 35.2172 24.0715 35.2444 25.3794 35.4077C25.435 35.5165 25.4072 35.5982 25.3515 35.707ZM43.9115 40.4689C43.8837 40.6594 43.8559 40.7955 43.8281 40.9315C43.8281 40.9587 43.8281 40.9587 43.8281 40.9859C43.8002 41.122 43.7724 41.258 43.7446 41.3941C43.7446 41.4213 43.7446 41.4485 43.7168 41.4757C43.6889 41.6118 43.6333 41.7206 43.6054 41.8567C43.6054 41.8839 43.5776 41.9111 43.5776 41.9383C43.522 42.0744 43.4941 42.1832 43.4385 42.3193C43.4385 42.3465 43.4385 42.3465 43.4107 42.3737C43.355 42.5097 43.2994 42.6186 43.2159 42.7546C43.1046 42.9723 42.9655 43.1628 42.882 43.3805C41.1289 46.2921 39.0698 47.3261 36.5933 47.6798C35.5081 47.8431 34.2002 47.8703 33.0037 47.7342H32.9759C32.8089 47.707 32.642 47.6798 32.475 47.6526C32.4472 47.6526 32.3915 47.6526 32.3637 47.6254C32.2246 47.5982 32.0855 47.571 31.9463 47.5438C31.9185 47.5438 31.8907 47.5438 31.8628 47.5166C31.835 47.5166 31.8072 47.4893 31.7794 47.4893C31.6681 47.4621 31.5289 47.4349 31.4454 47.3805C31.3898 47.3533 31.3341 47.3261 31.2785 47.2717C31.195 47.2444 31.1394 47.19 31.0559 47.1628C30.9724 47.1084 30.9168 47.0812 30.8333 47.0268C30.7776 46.9995 30.7498 46.9723 30.6941 46.9451C30.6941 46.9451 30.6941 46.9451 30.6663 46.9451C30.6385 46.9179 30.6385 46.9179 30.6107 46.8907C30.5272 46.8363 30.4437 46.7819 30.3602 46.7002C30.3046 46.673 30.2489 46.6186 30.1933 46.5914C30.1654 46.5642 30.1376 46.537 30.1098 46.5098C30.0541 46.4553 29.9707 46.4009 29.915 46.3737C29.8594 46.3465 29.8315 46.3193 29.8037 46.2649C29.6924 46.1832 29.6089 46.1016 29.5254 46.02C29.4698 45.9655 29.3863 45.9111 29.3307 45.8567C29.3028 45.8295 29.275 45.8023 29.2472 45.7751C29.1915 45.7206 29.1359 45.6934 29.1081 45.639C29.1081 45.639 29.1081 45.639 29.0802 45.6118C28.9968 45.5302 28.9133 45.4213 28.8298 45.3669C28.7463 45.2853 28.6628 45.1764 28.5794 45.122C28.5237 45.0404 28.4681 44.9859 28.3846 44.9043C28.3289 44.8227 28.2733 44.741 28.1898 44.6866C28.162 44.6594 28.1341 44.6322 28.1063 44.605C27.995 44.4689 27.8837 44.3329 27.8281 44.1968C27.8281 44.1968 27.8281 44.1696 27.8002 44.1696C27.7724 44.1152 27.7446 44.088 27.7168 44.0336C27.6333 43.9247 27.5776 43.8159 27.522 43.7342C27.4941 43.707 27.4663 43.6526 27.4663 43.6254C27.4107 43.5166 27.3272 43.3805 27.2715 43.2989C27.2437 43.2717 27.2437 43.2172 27.2159 43.19C27.1324 43.054 27.0768 42.9451 26.9933 42.8091C26.9654 42.7546 26.9376 42.7274 26.9098 42.673C26.8541 42.537 26.7707 42.4009 26.715 42.2648C26.6872 42.1832 26.6594 42.1288 26.6315 42.0472C26.5759 41.9383 26.5481 41.8023 26.4924 41.7206C26.4924 41.6934 26.4646 41.639 26.4646 41.6118C26.4646 41.5846 26.4368 41.5574 26.4368 41.5302C26.4089 41.4213 26.3811 41.3397 26.3533 41.258C26.3533 41.2308 26.3254 41.2036 26.3254 41.1764C26.2698 41.0404 26.242 40.9043 26.2141 40.7682C26.1863 40.6594 26.1585 40.5506 26.1307 40.4689C26.1307 40.4417 26.1307 40.4145 26.1028 40.3873C26.1028 40.3601 26.1028 40.3329 26.075 40.3057C26.0472 40.1696 26.0194 40.0608 25.9915 39.9247V39.8975C25.9915 39.8703 25.9915 39.8431 25.9915 39.8159C25.9915 39.7614 25.9915 39.707 25.9637 39.6526C25.9637 39.571 25.9359 39.5165 25.9359 39.4349C25.9359 39.4077 25.9359 39.3805 25.9359 39.3261C25.9359 39.2716 25.9359 39.2444 25.9081 39.19C25.9081 39.1628 25.9081 39.1356 25.9081 39.1084C25.8802 38.9179 25.8802 38.7819 25.8802 38.5914C25.8802 38.3465 25.8802 38.1288 25.8802 37.8839C25.9637 36.1152 26.5759 34.156 27.9115 32.6322C27.9394 32.605 27.9394 32.605 27.9672 32.5778C28.2176 32.3329 28.4402 32.088 28.7185 31.8431C28.7463 31.8159 28.7741 31.7887 28.802 31.7887C28.9133 31.707 29.0246 31.5982 29.1359 31.5438C29.1637 31.5165 29.1915 31.4893 29.2472 31.4621C29.3863 31.3533 29.5254 31.2444 29.6924 31.19C29.7202 31.19 29.7202 31.1628 29.7481 31.1628C29.8872 31.0812 29.9985 30.9995 30.1654 30.9179C30.2211 30.8907 30.2768 30.8635 30.3324 30.8363C30.4715 30.7818 30.5828 30.7274 30.6941 30.6458C30.7498 30.6186 30.8055 30.5914 30.8611 30.5642C31.0281 30.4825 31.195 30.4281 31.3898 30.3737C31.4454 30.3465 31.5011 30.3465 31.5846 30.3193C31.7237 30.2648 31.835 30.2376 31.9741 30.1832C32.0576 30.156 32.1411 30.1288 32.2246 30.1288C32.3637 30.1016 32.5028 30.0472 32.642 30.0199C32.6976 30.0199 32.7811 29.9927 32.8368 29.9655C33.0315 29.9383 33.2263 29.8839 33.4489 29.8567C33.5324 29.8567 33.6159 29.8295 33.6994 29.8295C33.8385 29.8023 33.9776 29.8023 34.1168 29.8023C34.2281 29.8023 34.3115 29.775 34.395 29.775C34.5898 29.775 34.7568 29.7478 34.9515 29.7478C35.0072 29.7478 35.0628 29.7478 35.1185 29.7478C35.8698 29.7478 36.5376 29.8295 37.2054 29.9655C38.2907 30.1832 39.2646 30.5642 40.155 31.1356C40.6002 31.4077 41.0176 31.7342 41.4072 32.088C41.7133 32.3601 42.0194 32.6866 42.2698 33.0131C42.3255 33.0948 42.4089 33.1764 42.4646 33.258C42.5759 33.3941 42.6594 33.5029 42.7428 33.6662C42.7985 33.775 42.882 33.8839 42.9376 33.9655C42.9654 34.0199 42.9933 34.0744 43.0489 34.156C43.1324 34.2921 43.2159 34.4009 43.2715 34.537C43.3272 34.6186 43.355 34.7002 43.4107 34.7819C43.4385 34.8363 43.4663 34.8635 43.4663 34.8907C43.4941 34.9179 43.4941 34.9723 43.522 34.9995C43.5776 35.1084 43.6333 35.2444 43.6889 35.3261C43.7168 35.5982 43.7724 36.0063 43.8281 36.4417C43.8281 36.5234 43.8281 36.605 43.8559 36.6866C43.8559 36.7138 43.8559 36.7682 43.8559 36.7955C44.0228 38.0744 44.0507 39.3261 43.9115 40.4689Z" fill="#565297"/>
<path d="M10.7149 34.8641C12.4679 34.8641 13.6088 35.4899 14.3044 36.3607C13.6366 35.4899 12.4957 34.8369 10.7149 34.8641C8.98965 34.8641 7.654 35.626 6.87487 37.041C6.54096 37.6396 6.34617 38.2927 6.2627 38.9729C6.34617 38.2927 6.51313 37.6396 6.87487 37.041C7.68183 35.626 9.0453 34.8641 10.7149 34.8641Z" fill="#EBC041"/>
<path d="M19.5637 35.9796C19.5358 35.9252 19.5358 35.8436 19.508 35.7892C19.4802 35.7075 19.4523 35.6531 19.4245 35.5715C19.2576 35.1089 19.0628 34.6463 18.8123 34.2109L15.4732 36.0613C15.9463 36.8232 16.2245 37.7484 16.2245 38.6191C16.3358 41.3946 14.4437 44.4967 10.715 44.7688C10.548 44.7688 10.381 44.796 10.2141 44.796C8.40539 44.796 6.90278 44.0613 5.9567 42.6191C5.73409 42.3198 5.59496 41.9388 5.45583 41.6123L2.1167 43.4626C2.14453 43.5715 2.20018 43.6803 2.25583 43.7348C2.31148 43.898 2.39496 44.0069 2.47844 44.1701C2.50626 44.1973 2.50626 44.2246 2.53409 44.2518C2.64539 44.4422 2.72887 44.6055 2.84018 44.796C4.45409 47.3538 7.20887 48.6055 10.6593 48.3878C10.8541 48.3606 11.021 48.3606 11.2158 48.3334C11.2715 48.3334 11.3271 48.3062 11.4106 48.3062C11.5497 48.279 11.661 48.279 11.7445 48.2518C11.828 48.2518 11.8837 48.2245 11.9671 48.2245C12.0784 48.1973 12.1897 48.1701 12.2732 48.1701C12.3567 48.1429 12.4123 48.1429 12.4958 48.1157C12.6071 48.0885 12.7184 48.0613 12.7741 48.0341C12.8576 48.0069 12.9132 48.0069 12.9689 47.9797C13.0802 47.9524 13.1637 47.9252 13.2471 47.8708C13.3028 47.8436 13.3863 47.8164 13.4419 47.8164C13.5532 47.7892 13.6645 47.7348 13.748 47.6803C13.8037 47.6531 13.8593 47.6531 13.8871 47.6259C14.0263 47.5715 14.1654 47.4899 14.3045 47.4354C14.3602 47.4082 14.4158 47.381 14.4715 47.3538C14.555 47.2994 14.6384 47.2722 14.7219 47.2177C14.8054 47.1905 14.861 47.1361 14.9167 47.1089C15.0002 47.0817 15.0558 47.0273 15.1393 46.9729C15.2228 46.9184 15.2784 46.8912 15.3619 46.8368C15.4176 46.8096 15.501 46.7552 15.5567 46.728C15.6402 46.6735 15.6958 46.6191 15.7793 46.5919C15.835 46.5647 15.8906 46.5103 15.9463 46.4831C16.0297 46.4286 16.0854 46.3742 16.1689 46.3198C16.2245 46.2926 16.2523 46.2654 16.2802 46.2109C16.6697 45.9116 17.0315 45.5307 17.3654 45.1769L17.3932 45.1497C17.4767 45.0409 17.5602 44.9592 17.6437 44.8776L17.6715 44.8504C19.3132 42.8912 20.0923 40.3606 19.981 37.966C19.8976 37.3946 19.7863 36.6599 19.5637 35.9796Z" fill="#EBC041"/>
<path d="M10.6871 43.6802C8.62797 43.8435 7.54275 42.8911 6.98623 42.0476C6.76362 41.7482 6.62449 41.3673 6.51318 41.0135C6.62449 41.3673 6.76362 41.7482 6.98623 42.0476C7.51492 42.8911 8.60014 43.8163 10.6871 43.6802C12.6628 43.5442 13.9984 42.4013 14.6662 40.9863C13.9706 42.4013 12.6628 43.5169 10.6871 43.6802Z" fill="#EBC041"/>
<path d="M5.45601 41.5572C4.87167 40.632 4.00906 36.7681 6.23515 35.081C8.43341 33.4484 10.2421 33.4484 11.3551 33.7477C13.3586 33.911 14.6943 34.8633 15.4734 36.0606L18.8125 34.2103C17.5325 31.9246 15.0004 30.0742 10.743 30.0742C8.8508 30.0742 7.15341 30.5368 5.70645 31.4348C4.89949 31.9246 4.17601 32.5776 3.59167 33.3123C3.34123 33.5844 3.14645 33.911 2.89601 34.2647C1.19862 37.013 0.948187 40.6048 2.11688 43.4892L5.45601 41.6389C5.48384 41.6116 5.48384 41.5844 5.45601 41.5572Z" fill="#F7EF7E"/>
<path d="M11.3551 33.748C10.2421 33.4759 8.43339 33.4487 6.23513 35.0813C3.98122 36.7412 4.89948 40.6324 5.456 41.5575C5.456 41.5847 5.48383 41.612 5.48383 41.6392C5.62296 41.9929 5.76209 42.3466 5.9847 42.646C6.90296 44.0337 8.40557 44.8228 10.2421 44.8228C10.409 44.8228 10.5482 44.8228 10.743 44.7956C14.4717 44.5507 16.3638 41.4215 16.2525 38.646C16.2247 37.748 15.9743 36.8773 15.5012 36.0881C14.7221 34.8636 13.3586 33.9113 11.3551 33.748ZM14.6386 40.9589C13.9708 42.3739 12.6351 43.5167 10.6595 43.6528C8.60035 43.816 7.48731 42.8637 6.95861 42.0201C6.736 41.7208 6.59687 41.3398 6.48557 40.9861C6.26296 40.333 6.20731 39.6256 6.26296 38.9181C6.34644 38.2378 6.51339 37.5847 6.87513 36.9861C7.65426 35.5711 9.04557 34.782 10.7151 34.782C12.4682 34.782 13.609 35.4079 14.3047 36.2786C14.8334 36.9589 15.056 37.8024 15.0838 38.5915C15.1673 39.4623 14.9725 40.2514 14.6386 40.9589Z" fill="#565297"/>
<path d="M43.9393 37.0677C43.9393 37.0405 43.9393 36.9861 43.9393 36.9589C43.9393 36.8773 43.9393 36.7956 43.9114 36.714C43.8836 36.2786 43.828 35.8977 43.7723 35.5983C43.7167 35.4623 43.661 35.3534 43.6054 35.2718C43.5775 35.1902 43.5497 35.1085 43.494 35.0541C43.4384 34.9725 43.4106 34.8909 43.3549 34.8092C43.2714 34.6732 43.2158 34.5643 43.1323 34.4283C43.1045 34.3739 43.0767 34.3194 43.021 34.2378C42.9375 34.129 42.8819 34.0201 42.8262 33.9385L39.5984 35.7344C39.654 35.816 39.7097 35.8977 39.7932 35.9793C39.8488 36.0881 39.9323 36.1698 39.988 36.2514C40.0158 36.3058 40.0714 36.3602 40.1271 36.4419C41.0175 38.0473 41.1288 40.0065 40.4888 41.6119C40.3497 41.9385 40.2106 42.2922 39.988 42.5915C39.8488 42.782 39.7375 42.9453 39.5984 43.1085C38.6801 44.1698 37.3445 44.7412 35.7584 44.7412C35.6471 44.7412 35.508 44.7412 35.4245 44.7412C35.3688 44.7412 35.3132 44.7412 35.2575 44.7412C35.0627 44.714 34.9236 44.6868 34.7288 44.6596C32.6419 44.3602 31.1671 43.1085 30.4158 41.5575C30.388 41.5303 30.388 41.5031 30.3601 41.4759C30.2488 41.3398 30.1653 41.1766 30.0819 40.9589C30.0819 40.9861 30.1097 41.0133 30.1097 41.0133L27.0488 42.7276C27.0767 42.782 27.1045 42.8092 27.1323 42.8636C27.188 42.9997 27.2714 43.1085 27.3549 43.2446C27.3827 43.2718 27.3827 43.3262 27.4106 43.3534C27.4662 43.4623 27.5497 43.5983 27.6054 43.68C27.6332 43.7072 27.661 43.7616 27.661 43.7888C27.7167 43.8977 27.8001 44.0065 27.8558 44.0881C27.8836 44.1426 27.9114 44.1698 27.9393 44.2242C27.9393 44.2242 27.9393 44.2514 27.9671 44.2514C28.0784 44.3875 28.1619 44.5235 28.2453 44.6596C28.2732 44.6868 28.301 44.714 28.3288 44.7412C28.3845 44.8228 28.4401 44.8772 28.4958 44.9589C28.5514 45.0405 28.6071 45.0949 28.6906 45.1766C28.7462 45.231 28.774 45.2854 28.8297 45.3398C28.8575 45.367 28.9132 45.4215 28.941 45.4487C29.0245 45.5303 29.108 45.6392 29.1914 45.6936C29.1914 45.6936 29.1914 45.6936 29.2193 45.7208C29.2749 45.7752 29.3306 45.8024 29.3584 45.8568C29.3862 45.884 29.414 45.9113 29.4419 45.9385C29.4975 45.9929 29.581 46.0473 29.6367 46.1017C29.7201 46.1834 29.8314 46.265 29.9149 46.3466C29.9427 46.3738 29.9984 46.4011 30.0262 46.4555C30.0819 46.5099 30.1653 46.5643 30.221 46.5915C30.2488 46.6187 30.2767 46.6459 30.3045 46.6732C30.3601 46.7004 30.4158 46.7548 30.4714 46.782C30.5549 46.8364 30.6384 46.8908 30.7219 46.9725C30.7497 46.9997 30.7497 46.9997 30.7775 47.0269C30.7775 47.0269 30.7775 47.0269 30.8054 47.0269C30.861 47.0541 30.8888 47.0813 30.9445 47.1085C31.0001 47.1357 31.028 47.163 31.0836 47.1902C31.1949 47.2446 31.3062 47.299 31.3619 47.3534C31.4175 47.3806 31.4732 47.4079 31.5288 47.4623C31.6401 47.4895 31.7514 47.5167 31.8627 47.5711C31.9184 47.5983 31.974 47.5983 32.0297 47.6255C32.1688 47.6528 32.2801 47.68 32.4471 47.7072C32.4749 47.7072 32.5306 47.7072 32.5584 47.7344C32.7254 47.7616 32.8645 47.7888 33.0593 47.816H33.0871C34.2836 47.9521 35.5914 47.9249 36.6767 47.7616C39.1532 47.4079 41.2123 46.3738 42.9654 43.4623C43.0767 43.2718 43.2158 43.0813 43.2993 42.8636C43.3827 42.7276 43.4384 42.6187 43.494 42.4827C43.494 42.4555 43.494 42.4555 43.5219 42.4283C43.5775 42.2922 43.6332 42.1834 43.661 42.0473C43.661 42.0201 43.6888 41.9929 43.6888 41.9657C43.7167 41.8296 43.7723 41.7208 43.8001 41.5847C43.8001 41.5575 43.8001 41.5303 43.828 41.5031C43.8558 41.367 43.8836 41.231 43.9114 41.0949C43.9114 41.0677 43.9114 41.0677 43.9114 41.0405C43.9393 40.8772 43.9671 40.7412 43.9949 40.5779V40.5507C44.0506 39.3262 44.0227 38.0745 43.9393 37.0677Z" fill="#EBC041"/>
<path d="M30.1378 41.013C30.0821 40.9042 30.0543 40.8225 29.9987 40.7409C29.9987 40.7137 29.9987 40.7137 29.9708 40.6865C29.9708 40.6593 29.943 40.632 29.943 40.6048C29.4143 39.1627 29.1082 36.7137 30.6943 35.1899C30.7221 35.1627 30.75 35.1354 30.7778 35.1082C30.8613 35.0266 30.9726 34.945 31.0282 34.8633C31.6961 34.3735 32.3082 34.047 32.8926 33.8021C35.4248 32.7953 37.1221 33.8837 37.3448 34.047C37.5952 34.1559 37.8734 34.2919 38.0961 34.4008C38.1795 34.4552 38.263 34.5096 38.3465 34.564C38.5134 34.6729 38.6526 34.7817 38.8195 34.8905C38.903 34.945 38.9865 35.0266 39.07 35.1082C39.2091 35.2443 39.3204 35.3531 39.4595 35.5164C39.543 35.598 39.5987 35.6797 39.6821 35.7613C39.6821 35.7613 39.6821 35.7613 39.71 35.7885L42.9378 33.9926C42.8265 33.8293 42.743 33.7205 42.6595 33.5844C42.6039 33.5028 42.5204 33.4212 42.4647 33.3395C42.2143 33.013 41.9082 32.6865 41.6021 32.4144C41.2126 32.0606 40.823 31.7341 40.35 31.462C39.4595 30.8905 38.4856 30.5096 37.4004 30.2919C36.7326 30.1559 36.0369 30.0742 35.3134 30.0742C35.2578 30.0742 35.2021 30.0742 35.1465 30.0742C34.9517 30.0742 34.7848 30.0742 34.59 30.1014C34.4787 30.1014 34.3952 30.1014 34.3117 30.1286C34.1448 30.1286 34.0335 30.1559 33.8943 30.1559C33.8108 30.1559 33.6995 30.1831 33.6439 30.1831C33.4213 30.2103 33.2543 30.2375 33.0317 30.2919C32.9761 30.2919 32.8926 30.3191 32.8369 30.3463C32.6978 30.3735 32.5587 30.4008 32.4195 30.4552C32.3361 30.4824 32.2526 30.4824 32.1691 30.5096C32.03 30.5368 31.9187 30.5912 31.7795 30.6456C31.7239 30.6729 31.6682 30.6729 31.5848 30.7001C31.39 30.7545 31.2508 30.8361 31.0561 30.8905C31.0004 30.9178 30.9448 30.945 30.8891 30.9722C30.75 31.0266 30.6387 31.081 30.5274 31.1627C30.4717 31.1899 30.4161 31.2171 30.3604 31.2443C30.2213 31.3259 30.0821 31.4076 29.943 31.4892C29.9152 31.4892 29.9152 31.5164 29.8874 31.5164C29.7204 31.6252 29.6091 31.7069 29.4421 31.7885C29.4143 31.8157 29.3587 31.8429 29.3308 31.8701C29.2195 31.9518 29.0804 32.0606 28.9969 32.115C28.9691 32.1422 28.9413 32.1695 28.9135 32.1695C28.663 32.4144 28.3848 32.632 28.1622 32.9042C28.1343 32.9314 28.1343 32.9314 28.1065 32.9586C26.7708 34.4824 26.1308 36.4144 26.0752 38.2103C26.0752 38.4552 26.0752 38.6729 26.0752 38.9178C26.0752 39.1082 26.103 39.2443 26.103 39.4348C26.103 39.5164 26.103 39.5708 26.1308 39.6525C26.1308 39.6797 26.1308 39.7069 26.1308 39.7613C26.1308 39.8429 26.1587 39.8974 26.1587 39.979C26.1587 40.0606 26.1865 40.1423 26.1865 40.1967V40.2239C26.2143 40.3599 26.2422 40.4688 26.27 40.6048C26.27 40.632 26.27 40.6593 26.2978 40.6865C26.2978 40.7137 26.2978 40.7409 26.3256 40.7681C26.3535 40.8769 26.3813 40.9858 26.4091 41.0674C26.4369 41.2307 26.4926 41.3395 26.5204 41.4756C26.5204 41.5028 26.5482 41.53 26.5482 41.5572C26.5761 41.6661 26.6039 41.7477 26.6317 41.8293C26.6317 41.8565 26.6595 41.8838 26.6595 41.911C26.6595 41.9382 26.6874 41.9926 26.6874 42.0198C26.7152 42.1287 26.7708 42.2647 26.8265 42.3463C26.8543 42.428 26.8822 42.4824 26.91 42.564C26.9656 42.7001 27.0213 42.8361 27.1048 42.9722L30.1656 41.2579C30.1378 41.0674 30.1378 41.0402 30.1378 41.013Z" fill="#F7EF7E"/>
<path d="M39.4595 35.5444C39.3203 35.3812 39.209 35.2723 39.0699 35.1363C38.9864 35.0546 38.9029 35.0002 38.8195 34.9186C38.6525 34.7825 38.5134 34.6737 38.3464 34.592C38.2629 34.5376 38.1795 34.4832 38.096 34.4288C37.8455 34.2927 37.5951 34.1839 37.3447 34.075C37.0942 33.9118 35.4247 32.8505 32.8925 33.8301C32.3082 34.075 31.6682 34.4016 31.0282 34.8914C30.9169 34.973 30.8334 35.0546 30.7777 35.1363C30.7499 35.1635 30.7221 35.1907 30.6942 35.2179C29.136 36.7417 29.4421 39.1635 29.9429 40.6329C29.9429 40.6601 29.9708 40.6873 29.9708 40.7145C29.9708 40.7417 29.9708 40.7417 29.9986 40.7689C30.0264 40.8778 30.0821 40.9594 30.1099 41.0138C30.1099 41.0138 30.1099 41.0138 30.1099 41.041L30.3882 41.558C30.416 41.5852 30.416 41.6125 30.4438 41.6397C31.2229 43.1907 32.6977 44.4152 34.7569 44.7417C34.9238 44.7689 35.0908 44.7961 35.2577 44.8233C35.3134 44.8233 35.369 44.8233 35.4247 44.8233C35.536 44.8233 35.6751 44.8233 35.7586 44.8233C37.3447 44.8233 38.6803 44.2519 39.5986 43.1907C39.7377 43.0274 39.8769 42.8642 39.9882 42.6737C40.2108 42.3744 40.3499 42.0206 40.489 41.6941C41.129 40.0614 41.0177 38.1022 40.1273 36.524C40.0995 36.4696 40.0438 36.4152 39.9882 36.3335C39.9325 36.2247 39.849 36.1431 39.7934 36.0614C39.7377 35.9526 39.6542 35.871 39.5986 35.8165C39.6264 35.6533 39.5429 35.5988 39.4595 35.5444ZM39.0977 42.0478C38.5412 42.8642 37.456 43.8165 35.3969 43.6805C32.3916 43.4628 30.8612 40.9594 30.9447 38.6737C31.0282 36.8233 32.1969 34.8369 35.3134 34.8369C37.0108 34.8369 38.3742 35.5988 39.1534 37.041C40.0438 38.592 40.016 40.6601 39.0977 42.0478Z" fill="#565297"/>
<path d="M32.8926 18.8635C32.2526 19.1084 31.6405 19.3261 31.0005 19.5982L25.2683 22.7275C24.8231 22.9724 24.3222 23.0812 23.7935 23.0812C23.2926 23.0812 22.8196 22.9452 22.3465 22.7275L14.8335 18.7547V22.9724L22.7361 28.4146L23.2091 28.605C23.4039 28.6867 23.6265 28.6867 23.8213 28.605L24.1274 28.469L24.2387 28.4146L34.7848 21.6118C34.8126 21.5846 34.8126 21.5846 34.8405 21.5574C35.7587 20.7139 35.8422 19.8431 35.397 19.1084C34.9796 18.3465 32.9483 18.8363 32.8926 18.8635Z" fill="#2EB2D9"/>
<path d="M11.4108 16.9043L10.7151 17.9111L9.71337 19.2444L9.68555 19.3805L14.8612 22.9723V18.7546L11.4108 16.9043Z" fill="#FFFDF0"/>
<path d="M22.9027 21.7485C23.4592 22.0478 24.1548 22.0206 24.6835 21.7485L35.7861 15.7349L39.5148 13.7757L43.2435 11.8165L33.9218 6.83691L15.2227 17.6396L22.9027 21.7485Z" fill="#2EB2D9"/>
<path d="M33.894 6.83626L33.1984 6.48252L23.8488 1.53014C23.7932 1.50293 23.7375 1.50293 23.6819 1.50293C23.6262 1.50293 23.5427 1.50293 23.4871 1.53014C23.4592 1.53014 23.4314 1.53014 23.4036 1.55735L22.9305 1.77504L4.12012 11.7886L15.2227 17.6662L33.894 6.83626Z" fill="#FFFDF0"/>
<path d="M2.729 12.1155C2.729 12.1155 2.729 12.1427 2.729 12.1155C2.75683 12.1699 2.78466 12.2243 2.81248 12.2516C2.81248 12.2788 2.84031 12.306 2.84031 12.306C2.86813 12.3332 2.89596 12.3604 2.92379 12.3876C2.95161 12.4148 2.97944 12.442 3.00726 12.4692L3.06292 12.5237L10.3812 16.3876L8.71161 18.6189C8.68379 18.6733 8.65596 18.7277 8.62813 18.7822L8.40552 19.408C8.34987 19.5713 8.3777 19.7073 8.46118 19.8434C8.51683 19.925 8.57248 20.0067 8.62813 20.0611L22.1516 29.34C22.1794 29.3672 22.2351 29.3944 22.2629 29.3944L22.7916 29.6121C23.042 29.7209 23.2647 29.7481 23.5429 29.7481C23.6264 29.7481 23.682 29.7209 23.7377 29.7209C23.9325 29.6937 24.1273 29.6665 24.322 29.5849L24.7951 29.3672C24.8229 29.3672 24.8229 29.34 24.8507 29.34C24.8786 29.34 24.8786 29.3128 24.9064 29.3128L39.2925 20.0067C39.5151 19.8434 39.5986 19.5985 39.5151 19.3536L39.2647 18.7005C39.2368 18.6189 39.1812 18.5645 39.1255 18.4828L37.7342 17.0135L36.9829 16.2516L40.4333 14.4284L43.8838 12.6053L44.2733 12.3876C44.4125 12.306 44.5238 12.1699 44.5238 12.0611C44.5794 11.8978 44.5516 11.7618 44.4681 11.6257L44.0786 10.9726C44.0229 10.891 43.9394 10.8094 43.856 10.755L34.3673 5.80257L24.8229 0.714138L24.3777 0.49645C24.322 0.49645 24.322 0.49645 24.2942 0.49645C23.9881 0.360396 23.6542 0.333185 23.3481 0.387607C23.2647 0.414818 23.209 0.442029 23.1255 0.46924C23.0699 0.49645 23.0142 0.49645 22.9864 0.523661L22.736 0.632505L22.4855 0.768559L3.45248 10.9182C3.369 10.9726 3.28553 11.0271 3.22987 11.1359L2.84031 11.789C2.84031 11.789 2.84031 11.789 2.84031 11.8162C2.81248 11.8434 2.81248 11.8706 2.81248 11.925C2.81248 11.9522 2.78466 12.0067 2.78466 12.0339C2.78466 12.0883 2.78466 12.1155 2.78466 12.1699C2.729 12.0611 2.729 12.0883 2.729 12.1155ZM34.8681 21.5305C34.8403 21.5577 34.8403 21.5577 34.8125 21.5849L24.2664 28.3876L24.1551 28.442L23.849 28.5781C23.6542 28.6597 23.4316 28.6597 23.2368 28.5781L22.7638 28.3876L14.8612 22.9454L9.6577 19.3536L9.71335 19.1631L10.7151 17.9114L11.4664 16.9046L14.9168 18.7277L22.3742 22.7277C22.8194 22.9726 23.3203 23.0815 23.8212 23.0815C24.322 23.0815 24.8229 22.9454 25.296 22.7277L31.056 19.5985C31.696 19.3536 32.3081 19.1087 32.9481 18.8638C32.976 18.8638 35.0351 18.3468 35.4803 19.0815C35.8699 19.8162 35.8142 20.6869 34.8681 21.5305ZM22.9307 1.72094L23.4316 1.47604C23.4594 1.47604 23.4873 1.47604 23.5151 1.44883C23.5707 1.44883 23.6542 1.44883 23.7099 1.44883C23.7655 1.44883 23.8212 1.44883 23.8768 1.47604L33.2264 6.42842L33.922 6.83659L43.216 11.789L39.4873 13.7481L35.7586 15.7073L24.6838 21.7209C24.1273 22.0203 23.4316 22.0203 22.9029 21.7209L15.1951 17.6393L4.12031 11.789L22.9307 1.72094Z" fill="#565297"/>
</svg>
