<svg width="57" height="45" viewBox="0 0 57 45" fill="none" xmlns="http://www.w3.org/2000/svg">
<path d="M43.875 26.1033C38.9581 24.2216 33.7439 23.2607 28.4701 23.2607C25.8531 23.2607 23.236 23.501 20.6785 23.9814C18.1011 24.4618 15.5832 25.1624 13.1446 26.1033C12.748 26.2634 12.4705 26.6638 12.5101 27.1042C12.9859 35.4316 19.6673 42.0575 27.9745 42.3377C28.2917 42.3577 28.5296 42.618 28.5296 42.9182V43.819C28.5296 44.6798 29.4416 45.2603 30.195 44.88C38.0858 40.9565 44.0733 34.9311 44.5293 27.1242C44.5293 26.6638 44.2715 26.2634 43.875 26.1033ZM35.8256 32.2087L35.7463 32.3088C34.9136 33.3497 33.7835 34.1704 32.5345 34.7309C31.9199 35.0112 31.2458 35.2114 30.5717 35.3515C29.8976 35.4916 29.2037 35.5517 28.5098 35.5717C27.8159 35.5517 27.1418 35.4916 26.4677 35.3515C25.7936 35.1913 25.1393 35.0112 24.5049 34.7309C23.2559 34.1704 22.1258 33.3497 21.2931 32.3088L21.2138 32.2087C20.9957 31.9284 21.0353 31.5081 21.3129 31.2879C21.5508 31.0877 21.8879 31.1077 22.1258 31.2879C23.0179 32.0285 24.0489 32.6091 25.1393 32.9894C26.2298 33.3697 27.3797 33.5699 28.5296 33.5699C29.6795 33.5699 30.8493 33.3697 31.9199 32.9894C33.0103 32.6091 34.0214 32.0285 34.9334 31.2879C35.211 31.0677 35.6273 31.1077 35.8454 31.388C36.0239 31.6282 36.004 31.9685 35.8256 32.2087Z" fill="white"/>
<path d="M0.674124 11.1498L4.02473 9.76855L3.82647 14.2525L0.733603 13.1716C-0.218049 12.8513 -0.257701 11.5301 0.674124 11.1498Z" fill="#57B3AA"/>
<path d="M56.2862 13.1718L44.4302 17.2755C43.994 17.4356 43.7164 17.856 43.7759 18.3364C43.9345 19.8978 44.1129 21.4792 44.2716 23.0406C44.3509 23.7612 43.6569 24.3217 42.963 24.1015C39.5331 22.9205 34.5171 21.6794 28.4305 21.6794C22.4034 21.6794 17.4469 22.9205 14.0368 24.1015C13.3429 24.3418 12.6489 23.7612 12.7282 23.0406C12.8869 21.4792 13.0653 19.8978 13.2239 18.3364C13.2636 17.876 12.986 17.4356 12.5696 17.2755L6.50286 15.1736L6.24512 8.84799L26.7651 0.340424C27.8754 -0.119985 29.1244 -0.119985 30.2149 0.340424L56.3258 11.15C57.2576 11.5304 57.218 12.8515 56.2862 13.1718Z" fill="#57B3AA"/>
<path d="M7.17715 31.7288C7.2168 32.8898 6.32463 33.8707 5.17471 33.9107C4.0248 33.9507 3.05332 33.0499 3.01367 31.8889C3.01367 31.8288 3.01367 31.7688 3.01367 31.7087L3.82654 14.2132L4.0248 9.7292L4.06445 8.70829V8.66826C4.08428 8.06772 4.59976 7.5873 5.21437 7.62733C5.78932 7.64735 6.2255 8.12778 6.24532 8.68828V8.8284L6.50306 15.154L7.17715 31.6487V31.7288Z" fill="#FABF13"/>
</svg>
