<svg width="29" height="29" viewBox="0 0 29 29" fill="none" xmlns="http://www.w3.org/2000/svg">
<rect width="29" height="29" rx="14.5" fill="#2EB2D9"/>
<path d="M23.25 13.5C23.25 12.6675 22.575 12 21.75 12H17.01L17.73 8.5725C17.745 8.4975 17.7525 8.415 17.7525 8.3325C17.7525 8.025 17.625 7.74 17.4225 7.5375L16.6275 6.75L11.6925 11.685C11.415 11.9625 11.25 12.3375 11.25 12.75V20.25C11.25 20.6478 11.408 21.0294 11.6893 21.3107C11.9706 21.592 12.3522 21.75 12.75 21.75H19.5C20.1225 21.75 20.655 21.375 20.88 20.835L23.145 15.5475C23.2125 15.375 23.25 15.195 23.25 15V13.5ZM6.75 21.75H9.75V12.75H6.75V21.75Z" fill="white"/>
</svg>
