<svg width="56" height="56" viewBox="0 0 56 56" fill="none" xmlns="http://www.w3.org/2000/svg">
<rect width="56" height="56" rx="28" fill="#00BCD4"/>
<path d="M28.2962 28.5261L29.0079 29.2286L28.2962 28.5261C28.2539 28.569 28.1906 28.569 28.1482 28.5261L18.9339 19.1921L17.2222 17.4582V19.8946V25.1816H17V17.0518H25V17.3028H19.7936H17.4012L19.0819 19.0054L28.2962 28.3394C28.3457 28.3895 28.3457 28.476 28.2962 28.5261Z" fill="white" stroke="white" stroke-width="2"/>
<path d="M20.3842 37.1531L20.8233 36.4023L20.3842 37.1531C20.765 37.3758 21.2197 37.4928 21.8647 37.552C22.5122 37.6114 23.3342 37.6116 24.4446 37.6116H30.3705C32.0508 37.6116 33.2947 37.6112 34.249 37.4813C35.2 37.3517 35.8343 37.0966 36.3138 36.6108C36.7916 36.1268 37.0411 35.4896 37.1682 34.5324C37.296 33.5689 37.2965 32.3119 37.2965 30.6087V24.6058C37.2965 23.4803 37.2963 22.6497 37.2378 21.9959C37.1796 21.3459 37.0651 20.8904 36.8477 20.5089C36.5533 19.9924 36.129 19.5619 35.6161 19.262C35.2353 19.0392 34.7806 18.9223 34.1356 18.8631C33.4881 18.8037 32.6661 18.8035 31.5557 18.8035C31.4656 18.8035 31.3705 18.7259 31.3705 18.6029C31.3705 18.4799 31.4656 18.4023 31.5557 18.4023L31.6103 18.4023C32.6883 18.4023 33.5118 18.4032 34.1667 18.4634C34.8351 18.5247 35.3471 18.649 35.7916 18.9089C36.3598 19.2412 36.8331 19.7201 37.1629 20.2987C37.422 20.7533 37.5455 21.277 37.6064 21.9574C37.666 22.6229 37.6668 23.4592 37.6668 24.5505V30.6934C37.6669 32.3442 37.6649 33.6086 37.5348 34.5892C37.4013 35.595 37.1296 36.3334 36.5666 36.9036C36.0055 37.4721 35.2818 37.7449 34.2949 37.8793C33.33 38.0107 32.0848 38.0128 30.4542 38.0127H24.3901C23.3121 38.0128 22.4885 38.0118 21.8336 37.9517C21.1652 37.8903 20.6532 37.7661 20.2087 37.5061C19.6406 37.1739 19.1672 36.695 18.8374 36.1164C18.5783 35.6618 18.4548 35.1381 18.3939 34.4577C18.3344 33.7921 18.3335 32.9559 18.3335 31.8646L18.3335 31.8093C18.3335 31.6863 18.4285 31.6087 18.5187 31.6087C18.6088 31.6087 18.7039 31.6863 18.7039 31.8093C18.7039 32.9348 18.7041 33.7654 18.7626 34.4192C18.8207 35.0692 18.9352 35.5247 19.1526 35.9062C19.447 36.4226 19.8713 36.8531 20.3842 37.1531Z" fill="white" stroke="white" stroke-width="2" stroke-linecap="round"/>
</svg>
