<svg width="56" height="56" viewBox="0 0 56 56" fill="none" xmlns="http://www.w3.org/2000/svg">
<rect width="56" height="56" rx="28" fill="#00BCD4"/>
<path fill-rule="evenodd" clip-rule="evenodd" d="M29.1079 16.0944C29.11 16.0633 29.1111 16.0319 29.1111 16.0003C29.1111 15.2639 28.5218 14.667 27.7949 14.667C27.0679 14.667 26.4786 15.2639 26.4786 16.0003C26.4786 16.0319 26.4797 16.0633 26.4819 16.0944C22.0152 16.7399 18.5812 20.6306 18.5812 25.3337V34.667H17.265C16.538 34.667 15.9487 35.2639 15.9487 36.0003C15.9487 36.7367 16.538 37.3337 17.265 37.3337H23.8462C23.8462 39.5428 25.6141 41.3337 27.7949 41.3337C29.9757 41.3337 31.7436 39.5428 31.7436 37.3337H38.3248C39.0517 37.3337 39.641 36.7367 39.641 36.0003C39.641 35.2639 39.0517 34.667 38.3248 34.667H37.0086V25.3337C37.0086 20.6306 33.5745 16.7399 29.1079 16.0944ZM34.3761 25.3337V34.667H21.2137V25.3337C21.2137 21.6518 24.1602 18.667 27.7949 18.667C31.4296 18.667 34.3761 21.6518 34.3761 25.3337ZM27.7949 38.667C27.0679 38.667 26.4786 38.07 26.4786 37.3337H29.1111C29.1111 38.07 28.5218 38.667 27.7949 38.667Z" fill="white"/>
<circle cx="48.5" cy="7.5" r="7.5" fill="#FC2C2C"/>
</svg>
