<svg width="230" height="75" viewBox="0 0 230 75" fill="none" xmlns="http://www.w3.org/2000/svg">
<path d="M162.302 13.7979C154.003 13.7979 147.869 20.5759 147.869 28.988V29.109C147.869 37.4605 153.943 44.1781 162.181 44.1781C170.48 44.1781 176.613 37.3395 176.613 28.988V28.8669C176.613 20.5154 170.54 13.7979 162.302 13.7979ZM169.217 29.109C169.217 33.4058 166.631 37.0369 162.302 37.0369C158.152 37.0369 155.326 33.2848 155.326 28.988V28.8669C155.326 24.5701 157.912 20.939 162.241 20.939C166.391 20.939 169.217 24.6912 169.217 28.988V29.109Z" fill="#EBBF42"/>
<path d="M193.33 13.7979C185.032 13.7979 178.898 20.5759 178.898 28.988V29.109C178.898 37.4605 184.972 44.1781 193.21 44.1781C201.509 44.1781 207.642 37.3395 207.642 28.988V28.8669C207.642 20.5154 201.569 13.7979 193.33 13.7979ZM200.186 29.109C200.186 33.4058 197.6 37.0369 193.27 37.0369C189.121 37.0369 186.295 33.2848 186.295 28.988V28.8669C186.295 24.5701 188.88 20.939 193.21 20.939C197.359 20.939 200.186 24.6912 200.186 28.988V29.109Z" fill="#EBBF42"/>
<path d="M213.896 5.38574C212.814 5.38574 211.852 5.80937 211.13 6.53559C210.408 7.26181 209.988 8.23011 209.988 9.31944V43.5728H217.865V9.37995C217.865 7.20129 216.061 5.38574 213.896 5.38574Z" fill="#57BDB3"/>
<path d="M69.8755 13.7987C67.7107 13.7987 65.9067 15.5538 65.9067 17.793V27.5364C65.9067 31.2886 64.8844 34.7986 60.9757 35.5854C58.0291 36.1905 56.165 34.9197 56.165 31.1675V15.5538C56.165 13.3751 54.4211 11.5596 52.1961 11.5596C50.0313 11.5596 48.2273 13.3146 48.2273 15.5538V33.7093C48.2273 40.1242 51.7151 44.2395 57.6683 44.2395C61.2162 44.2395 63.4412 42.4239 65.1851 40.4268C65.4256 40.1848 65.8465 40.3058 65.8465 40.6689V44.179H73.7241V17.793C73.8443 15.6143 72.1004 13.7987 69.8755 13.7987Z" fill="#57BDB3"/>
<path d="M90.5616 15.4932C89.9001 15.4932 88.7576 15.7958 88.7576 15.7958C87.4948 16.0984 85.811 16.643 85.5103 16.7035C85.2097 14.8275 83.5861 13.4355 81.6016 13.4355C79.4368 13.4355 77.6328 15.1906 77.6328 17.4298V44.1789H85.5103L85.5705 30.0176C85.7509 28.9282 86.2319 27.4153 87.7353 26.5075C87.9758 26.3865 88.2164 26.2654 88.517 26.1444C90.4413 25.4787 93.2075 26.5075 95.0716 25.4182C96.3344 24.2078 96.3344 22.4528 96.3344 21.3635C96.3946 18.0955 93.8088 15.4932 90.5616 15.4932Z" fill="#57BDB3"/>
<path d="M143.179 36.0692C142.036 36.1903 139.992 36.3718 138.789 36.4928C135.181 36.9165 131.333 34.9194 130.491 30.2595C129.769 26.2047 131.754 21.5448 136.203 20.8186C139.451 20.2739 143.54 23.4814 145.825 19.7293C146.967 17.8532 146.366 15.3114 144.502 14.1616C143.299 13.4354 142.157 13.5564 140.774 13.5564C137.226 13.5564 133.798 13.4959 130.551 15.0694C121.651 19.3662 119.366 31.6514 125.8 39.0951C129.288 43.0893 134.099 44.2392 139.15 44.2392C142.337 44.2392 147.689 44.9049 147.689 40.124C147.629 37.7637 145.524 35.8271 143.179 36.0692Z" fill="#57BDB3"/>
<path d="M118.464 28.8671C116.239 26.9911 114.074 25.9017 111.368 25.0545C108.662 24.2072 106.196 24.2072 106.016 22.3917C105.836 20.5761 108.241 20.3341 109.925 20.9998C111.608 21.6655 113.412 22.2101 114.375 22.6338C115.337 23.0574 118.283 23.481 119.666 21.4234C121.049 19.3658 120.027 16.8845 117.742 15.9162C115.457 14.9479 111.909 13.677 109.263 13.7981C109.263 13.7981 102.889 13.4955 100.424 17.6713C97.8979 21.847 99.1006 26.628 102.408 28.7461C105.715 30.8643 108.902 31.651 110.045 32.0141C111.187 32.4377 114.134 33.6481 113.833 35.2821C113.533 36.674 112.811 38.0659 110.105 37.5213C107.399 36.9766 104.994 36.4319 103.069 35.5847C101.205 34.7374 99.2208 34.3743 97.7175 36.1899C96.2141 38.0054 97.1763 40.0025 98.5593 41.2129C99.9424 42.4233 103.43 44.1783 108.481 44.2993C113.533 44.4204 119.005 43.6336 120.508 38.6711C122.012 33.7086 120.689 30.7432 118.464 28.8671Z" fill="#57BDB3"/>
<path d="M26.9399 6.35449C22.9711 6.35449 19.6036 7.3833 16.8374 9.19886C16.5368 9.38041 16.176 9.62248 15.8753 9.86456L17.4989 11.196C17.4989 11.196 16.7172 13.8588 15.2138 16.0374C13.7105 18.2161 11.0646 18.8818 11.0646 18.8818L9.8619 17.853C5.17145 29.4725 10.6436 45.3888 26.8197 44.239C49.8509 42.484 52.9178 6.35449 26.9399 6.35449ZM26.7595 34.9797C13.8909 35.948 14.3118 15.6743 26.8197 15.6743C40.1092 15.6138 38.5458 34.0719 26.7595 34.9797Z" fill="#57BDB3"/>
<path d="M15.2139 16.0374C16.7172 13.8587 17.499 11.1959 17.499 11.1959L15.8753 9.86449L13.2896 7.68583C13.8308 5.68873 14.0713 3.6311 14.0713 1.57348V1.39192V1.3314C14.0713 0.605184 13.47 0 12.7484 0C12.6883 0 12.568 0 12.5078 0C9.20048 0.36311 6.19379 1.3314 3.48777 2.90488L2.94656 3.38903C0.962142 6.83857 0 10.6512 0 14.948C0 15.1901 0 15.3717 0 15.6137V15.6743C0 16.4005 0.601339 17.0057 1.38308 17.0057C1.44321 17.0057 1.44321 17.0057 1.50335 17.0057C1.56348 17.0057 1.62362 17.0057 1.74388 16.9451C3.5479 16.6425 5.29178 16.0979 6.9154 15.4322L9.86196 17.974L11.0646 19.0028C11.0646 18.9422 13.7105 18.216 15.2139 16.0374Z" fill="#EBBF42"/>
<path d="M187.558 54.2323C187.257 53.9298 186.896 53.7482 186.415 53.7482C185.694 53.7482 185.032 54.2324 184.852 54.9586L184.731 55.5032C183.709 54.2324 182.266 53.4456 180.221 53.4456C176.734 53.4456 174.028 56.1084 174.028 60.5263C174.028 62.2208 174.449 63.6732 175.11 64.7625C173.667 65.6098 169.698 66.0939 169.638 61.0104C169.638 60.9499 169.638 60.9499 169.638 60.8894V56.4715H171.261C171.622 56.4715 171.983 56.3505 172.224 56.0479C172.464 55.8058 172.645 55.4427 172.645 55.0796C172.645 54.3534 172.043 53.7482 171.322 53.7482H169.698V51.6301C169.698 51.1459 169.518 50.7223 169.217 50.4197C168.916 50.1171 168.495 49.9355 168.014 49.9355C167.052 49.9355 166.27 50.7223 166.27 51.6906V53.8087H164.887C164.526 53.8087 164.166 53.9298 163.925 54.2323C163.685 54.4744 163.504 54.8375 163.504 55.2006C163.504 55.9269 164.105 56.532 164.827 56.532H166.21V60.9499C166.21 61.0104 166.21 61.0104 166.21 61.0709C166.27 68.0911 173.246 68.8778 176.313 66.215C177.395 67.1228 178.718 67.6069 180.221 67.6069C182.206 67.6069 183.709 66.8202 184.671 65.5493L184.792 66.0334C184.912 66.3965 185.092 66.6991 185.393 66.9412C185.694 67.1833 185.994 67.3043 186.355 67.3043C187.257 67.3043 187.979 66.5781 187.979 65.6703V55.3217C188.039 54.8981 187.858 54.4744 187.558 54.2323ZM181.184 64.581C179.079 64.581 177.575 62.8865 177.575 60.4657C177.575 58.045 179.019 56.29 181.184 56.29C183.408 56.29 184.912 58.045 184.912 60.4657C184.852 62.8865 183.408 64.581 181.184 64.581Z" fill="#606060"/>
<path d="M193.451 47.2119C194.413 47.2119 195.195 47.9987 195.195 48.9669V65.4885C195.195 66.4568 194.413 67.2435 193.451 67.2435C192.489 67.2435 191.707 66.4568 191.707 65.4885V48.9669C191.707 47.9987 192.489 47.2119 193.451 47.2119Z" fill="#606060"/>
<path d="M198.141 65.4883C198.141 64.399 199.103 63.4307 200.186 63.4307C201.328 63.4307 202.23 64.3384 202.23 65.4883C202.23 66.5776 201.268 67.5459 200.186 67.5459C199.043 67.5459 198.141 66.6381 198.141 65.4883Z" fill="#606060"/>
<path d="M203.252 57.7425C203.252 52.2958 207.221 47.9385 213.235 47.9385C214.798 47.9385 216.181 48.2411 217.444 48.7857C218.406 49.2094 218.767 50.4197 218.166 51.3275C217.685 52.0537 216.783 52.2958 216.001 51.9327C215.159 51.5091 214.257 51.3275 213.295 51.3275C209.446 51.3275 207.101 54.3534 207.101 57.8635C207.101 61.313 209.446 64.3995 213.295 64.3995C214.317 64.3995 215.219 64.1574 216.001 63.7338C216.783 63.3707 217.685 63.6127 218.166 64.2784C218.767 65.1862 218.406 66.3966 217.444 66.7597C216.181 67.3044 214.798 67.6069 213.235 67.6069C207.221 67.6675 203.252 63.2496 203.252 57.7425Z" fill="#606060"/>
<path d="M141.916 60.5869L142.818 63.9759C142.998 64.6416 143.179 65.3073 143.299 65.9125H143.359C143.479 65.3073 143.66 64.6416 143.9 63.9759L144.983 60.5869H145.524L146.546 63.9154C146.787 64.6416 146.967 65.2468 147.087 65.9125H147.148C147.268 65.3073 147.448 64.7022 147.629 63.9759L148.591 60.6474H149.192L147.328 66.6993H146.847L145.825 63.3102C145.584 62.584 145.404 62.0394 145.283 61.3131C145.103 62.0394 144.923 62.6445 144.742 63.3102L143.66 66.6993H143.179L141.435 60.6474H141.916V60.5869Z" fill="#606060"/>
<path d="M151.116 58.8919C151.116 59.1945 150.936 59.3761 150.635 59.3761C150.395 59.3761 150.214 59.134 150.214 58.8919C150.214 58.5893 150.395 58.4078 150.695 58.4078C150.936 58.3473 151.116 58.5893 151.116 58.8919ZM150.334 66.6383V60.5864H150.936V66.6383H150.334Z" fill="#606060"/>
<path d="M153.582 58.8311V60.5256H155.146V61.0097H153.582V65.0039C153.582 65.7907 153.823 66.2143 154.364 66.2143C154.604 66.2143 154.845 66.1538 154.965 66.1538L155.025 66.5774C154.845 66.6379 154.604 66.6984 154.304 66.6984C153.883 66.6984 153.582 66.5774 153.342 66.2748C153.101 65.9722 152.981 65.4881 152.981 64.8224V60.9492H152.019V60.465H152.981V58.9521L153.582 58.8311Z" fill="#606060"/>
<path d="M156.288 57.7422H156.889V61.5548C157.07 61.2523 157.31 60.9497 157.611 60.7681C157.912 60.5865 158.272 60.4655 158.693 60.4655C159.234 60.4655 160.557 60.7681 160.557 62.8257V66.6384H159.956V62.8862C159.956 61.8574 159.595 60.9497 158.513 60.9497C157.731 60.9497 157.13 61.4943 156.889 62.2811C156.829 62.4626 156.829 62.6442 156.829 62.8257V66.6384H156.228V57.7422H156.288Z" fill="#606060"/>
<path d="M8.0579 60.4655H3.60799V65.2464H8.65924V66.6384H1.98438V53.5664H8.35857V54.9583H3.60799V59.1341H8.11803V60.4655H8.0579Z" fill="#909090"/>
<path d="M17.8597 52.9609V64.2174C17.8597 65.0041 17.9199 65.9724 17.9199 66.5776H16.4766L16.4165 65.0646H16.3564C15.8753 65.9724 14.9132 66.7591 13.5902 66.7591C11.5457 66.7591 9.98218 64.8831 9.98218 61.9782C9.98218 58.7707 11.7261 57.0157 13.7706 57.0157C14.9733 57.0157 15.8152 57.5603 16.2361 58.3471V52.9609H17.8597ZM16.2361 60.9494C16.2361 60.7073 16.2361 60.4652 16.176 60.2837C15.9956 59.2548 15.1537 58.3471 14.0713 58.3471C12.4477 58.3471 11.6058 59.9205 11.6058 61.9782C11.6058 63.9148 12.3875 65.4882 14.0111 65.4882C14.9132 65.4882 15.8753 64.8831 16.176 63.5516C16.2361 63.3701 16.2361 63.128 16.2361 62.8254V60.9494Z" fill="#909090"/>
<path d="M27.6014 64.0358C27.6014 65.0041 27.6615 65.8514 27.6615 66.5776H26.2183L26.098 65.1857H26.0379C25.6771 65.8514 24.7751 66.7592 23.2718 66.7592C21.7684 66.7592 20.3252 65.7909 20.3252 62.8255V57.1973H21.9488V62.5229C21.9488 64.2174 22.4299 65.3672 23.7528 65.3672C24.8352 65.3672 25.4967 64.5805 25.7372 63.9148C25.7974 63.6727 25.8575 63.3701 25.8575 63.0675V57.1973H27.4811V64.0358H27.6014Z" fill="#909090"/>
<path d="M36.2007 66.2749C35.7797 66.4565 34.9379 66.7591 33.8554 66.7591C31.2697 66.7591 29.5859 64.9435 29.5859 61.9781C29.5859 59.1338 31.39 57.0156 34.2162 57.0156C35.0581 57.0156 35.8399 57.2577 36.2608 57.4393L35.9 58.7101C35.5392 58.5286 34.998 58.347 34.2162 58.347C32.292 58.347 31.2697 59.981 31.2697 61.9176C31.2697 64.0963 32.4724 65.4277 34.2162 65.4277C34.998 65.4277 35.5392 65.2461 35.9601 65.0646L36.2007 66.2749Z" fill="#909090"/>
<path d="M42.6349 66.638L42.5146 65.4882H42.4545C41.9734 66.2144 41.0714 66.8196 39.9289 66.8196C38.2451 66.8196 37.283 65.5487 37.283 64.1568C37.283 61.8571 39.2674 60.7072 42.3943 60.7072V60.4652C42.3943 59.5574 42.1538 58.2865 40.4701 58.2865C39.6883 58.2865 38.9066 58.5286 38.3052 58.8917L37.9444 57.8024C38.6059 57.3787 39.6282 57.0156 40.7707 57.0156C43.2964 57.0156 44.018 58.7707 44.018 60.7072V64.3989C44.018 65.1856 44.018 65.9723 44.1382 66.5775H42.6349V66.638ZM42.3943 61.7966C40.891 61.7966 38.9066 62.0386 38.9066 63.9147C38.9066 65.0646 39.6282 65.5487 40.3498 65.5487C41.3721 65.5487 42.0937 64.883 42.3342 64.0358C42.3943 63.8542 42.3943 63.6726 42.3943 63.4911V61.7966Z" fill="#909090"/>
<path d="M48.5281 54.5947V57.2575H50.7531V58.5284H48.5281V63.733C48.5281 64.9434 48.8889 65.488 49.7308 65.488C50.0916 65.488 50.3923 65.4275 50.5727 65.367L50.6328 66.6379C50.3321 66.7589 49.8511 66.8194 49.2497 66.8194C48.5281 66.8194 47.9268 66.5774 47.5058 66.1537C47.0849 65.6696 46.9045 64.8829 46.9045 63.733V58.5284H45.5815V57.2575H46.9045V55.0789L48.5281 54.5947Z" fill="#909090"/>
<path d="M54.3008 54.6548C54.3008 55.26 53.94 55.6836 53.2785 55.6836C52.6772 55.6836 52.3164 55.26 52.3164 54.6548C52.3164 54.0496 52.7373 53.626 53.3387 53.626C53.8799 53.626 54.3008 54.0496 54.3008 54.6548ZM52.4968 66.6374V57.2571H54.1204V66.6374H52.4968Z" fill="#909090"/>
<path d="M64.2832 61.8571C64.2832 65.3672 62.1184 66.8196 60.134 66.8196C57.8489 66.8196 56.105 65.0646 56.105 61.9782C56.105 58.7707 57.9691 57.0762 60.2542 57.0762C62.6596 57.0762 64.2832 58.8917 64.2832 61.8571ZM57.7286 61.9176C57.7286 63.7937 58.6306 65.5487 60.1941 65.5487C61.6974 65.5487 62.6596 63.8542 62.6596 61.9176C62.6596 60.4047 61.9981 58.2865 60.2542 58.2865C58.4502 58.2865 57.7286 60.2836 57.7286 61.9176Z" fill="#909090"/>
<path d="M66.2674 59.739C66.2674 58.7101 66.2073 57.9839 66.2073 57.2577H67.6505L67.7106 58.6496H67.7708C68.1917 57.8024 69.214 57.0156 70.5369 57.0156C71.7997 57.0156 73.4835 57.8629 73.4835 60.7678V66.5775H71.8598V61.0098C71.8598 59.6179 71.3788 58.4075 69.9957 58.4075C69.0336 58.4075 68.2518 59.1338 67.9512 60.1021C67.891 60.3441 67.8309 60.5862 67.8309 60.8888V66.638H66.2073V59.739H66.2674Z" fill="#909090"/>
<path d="M79.6775 64.6411C80.3389 65.0648 81.3612 65.3674 82.3233 65.3674C83.947 65.3674 84.849 64.4596 84.849 63.1282C84.849 61.9178 84.1274 61.1916 82.624 60.5259C80.82 59.7997 79.4971 58.6498 79.4971 56.8343C79.4971 54.8372 81.0605 53.3242 83.4659 53.3242C84.6084 53.3242 85.5104 53.6268 85.9915 53.9294L85.5706 55.2608C85.2098 55.0187 84.428 54.7161 83.4058 54.7161C81.7821 54.7161 81.1207 55.745 81.1207 56.6527C81.1207 57.8631 81.9024 58.4683 83.526 59.1945C85.5104 60.1628 86.5327 61.2521 86.5327 63.0071C86.5327 65.0648 85.0294 66.7593 82.2632 66.7593C81.1207 66.7593 79.8579 66.3962 79.3167 65.9725L79.6775 64.6411Z" fill="#909090"/>
<path d="M89.2386 57.2578L91.0426 62.765C91.223 63.4307 91.4635 64.0964 91.5838 64.7016H91.6439C91.7642 64.1569 92.0048 63.4307 92.1852 62.765L93.8088 57.3183H95.4925L93.2676 63.7938C92.2453 66.7592 91.4635 68.5747 90.321 69.7246C89.5393 70.5113 88.7575 70.8139 88.3366 70.935L87.8555 69.543C88.2765 69.3615 88.8177 69.0589 89.2987 68.6353C89.7197 68.2116 90.2007 67.5459 90.5615 66.8197C90.6217 66.6382 90.6818 66.5171 90.6818 66.3961C90.6818 66.2751 90.6818 66.154 90.5615 65.9725L87.4346 57.3183H89.2386V57.2578Z" fill="#909090"/>
<path d="M96.6954 64.9435C97.1764 65.2461 97.9582 65.5487 98.7399 65.5487C99.8825 65.5487 100.424 64.9435 100.424 64.1568C100.424 63.37 100.003 62.9464 98.8602 62.4018C97.2967 61.7361 96.5751 60.8283 96.5751 59.739C96.5751 58.226 97.7778 57.0156 99.5818 57.0156C100.484 57.0156 101.205 57.2577 101.686 57.5603L101.266 58.7707C100.905 58.5286 100.303 58.2865 99.5818 58.2865C98.6196 58.2865 98.1386 58.8917 98.1386 59.5574C98.1386 60.2836 98.6196 60.6467 99.7021 61.1309C101.145 61.7361 101.987 62.5833 101.987 63.9752C101.987 65.7303 100.724 66.7591 98.6798 66.7591C97.7778 66.7591 96.8758 66.517 96.2744 66.1539L96.6954 64.9435Z" fill="#909090"/>
<path d="M105.896 54.5947V57.2575H108.121V58.5284H105.896V63.733C105.896 64.9434 106.257 65.488 107.098 65.488C107.459 65.488 107.76 65.4275 107.94 65.367L108 66.6379C107.7 66.7589 107.219 66.8194 106.617 66.8194C105.896 66.8194 105.294 66.5774 104.874 66.1537C104.453 65.6696 104.272 64.8829 104.272 63.733V58.5284H102.949V57.2575H104.272V55.0789L105.896 54.5947Z" fill="#909090"/>
<path d="M110.827 62.1597C110.827 64.6409 112.21 65.4882 113.713 65.4882C114.736 65.4882 115.457 65.3066 115.998 65.0646L116.299 66.2144C115.758 66.517 114.796 66.7591 113.533 66.7591C110.887 66.7591 109.323 64.883 109.323 62.0386C109.323 59.1338 110.887 57.0156 113.352 57.0156C116.058 57.0156 116.84 59.4969 116.84 61.3124C116.84 61.6755 116.84 61.9176 116.78 62.0992H110.827V62.1597ZM115.217 61.0098C115.217 59.6784 114.736 58.2865 113.172 58.2865C111.669 58.2865 111.007 59.7995 110.887 61.0098H115.217Z" fill="#909090"/>
<path d="M118.704 59.739C118.704 58.7102 118.644 57.9839 118.644 57.2577H120.087L120.148 58.6496H120.208C120.689 57.8024 121.531 57.0762 122.914 57.0762C124.056 57.0762 124.958 57.7419 125.319 58.8312H125.379C125.68 58.3471 126.041 57.9234 126.402 57.6814C126.883 57.3182 127.484 57.1367 128.206 57.1367C129.468 57.1367 131.032 57.9839 131.032 60.9493V66.6986H129.408V61.2519C129.408 59.6179 128.867 58.5286 127.604 58.5286C126.762 58.5286 126.041 59.1943 125.8 60.0416C125.68 60.1626 125.68 60.4652 125.68 60.7678V66.6381H124.056V60.8888C124.056 59.5574 123.515 58.4681 122.312 58.4681C121.41 58.4681 120.689 59.1943 120.448 60.1021C120.388 60.3442 120.328 60.6468 120.328 60.9493V66.6986H118.704V59.739Z" fill="#909090"/>
</svg>
