<svg width="73" height="72" viewBox="0 0 73 72" fill="none" xmlns="http://www.w3.org/2000/svg">
<rect x="0.5" width="72" height="72" rx="36" fill="#FBC02D"/>
<path d="M45.0001 44.0003C45.7073 44.0003 46.3856 44.2813 46.8857 44.7814C47.3858 45.2815 47.6667 45.9597 47.6667 46.667C47.6667 47.3742 47.3858 48.0525 46.8857 48.5526C46.3856 49.0527 45.7073 49.3337 45.0001 49.3337C43.5201 49.3337 42.3334 48.1337 42.3334 46.667C42.3334 45.187 43.5201 44.0003 45.0001 44.0003ZM23.6667 22.667H28.0267L29.2801 25.3337H49.0001C49.3537 25.3337 49.6928 25.4741 49.9429 25.7242C50.1929 25.9742 50.3334 26.3134 50.3334 26.667C50.3334 26.8937 50.2667 27.1203 50.1734 27.3337L45.4001 35.9603C44.9467 36.7737 44.0667 37.3337 43.0667 37.3337H33.1334L31.9334 39.507L31.8934 39.667C31.8934 39.7554 31.9285 39.8402 31.991 39.9027C32.0536 39.9652 32.1383 40.0003 32.2267 40.0003H47.6667V42.667H31.6667C30.1867 42.667 29.0001 41.467 29.0001 40.0003C29.0001 39.5337 29.1201 39.0937 29.3201 38.7203L31.1334 35.4537L26.3334 25.3337H23.6667V22.667ZM31.6667 44.0003C32.374 44.0003 33.0523 44.2813 33.5524 44.7814C34.0525 45.2815 34.3334 45.9597 34.3334 46.667C34.3334 47.3742 34.0525 48.0525 33.5524 48.5526C33.0523 49.0527 32.374 49.3337 31.6667 49.3337C30.1867 49.3337 29.0001 48.1337 29.0001 46.667C29.0001 45.187 30.1867 44.0003 31.6667 44.0003ZM43.6667 34.667L47.3734 28.0003H30.5201L33.6667 34.667H43.6667Z" fill="white"/>
</svg>
